<svg xmlns="http://www.w3.org/2000/svg" version="1.1" xmlns:xlink="http://www.w3.org/1999/xlink" xmlns:svgjs="http://svgjs.dev/svgjs" width="1000" height="999" viewBox="0 0 1000 999"><g transform="matrix(1,0,0,1,-0.215743440233382,-0.21552769679306039)"><svg viewBox="0 0 343 343" data-background-color="#5e1914" preserveAspectRatio="xMidYMid meet" height="999" width="1000" xmlns="http://www.w3.org/2000/svg" xmlns:xlink="http://www.w3.org/1999/xlink"><g id="tight-bounds" transform="matrix(1,0,0,1,0.0740000000000407,0.07400000000001228)"><svg viewBox="0 0 342.85155851775386 342.85155851775386" height="342.85155851775386" width="342.85155851775386"><g><svg></svg></g><g><svg viewBox="0 0 342.85155851775386 342.85155851775386" height="342.85155851775386" width="342.85155851775386"><g><path d="M0 171.426c0-94.676 76.75-171.426 171.426-171.426 94.676 0 171.426 76.75 171.426 171.426 0 94.676-76.75 171.426-171.426 171.426-94.676 0-171.426-76.75-171.426-171.426zM171.426 340.229c93.228 0 168.803-75.576 168.803-168.803 0-93.228-75.576-168.803-168.803-168.804-93.228 0-168.803 75.576-168.804 168.804 0 93.228 75.576 168.803 168.804 168.803z" data-fill-palette-color="tertiary" fill="#ed1703" stroke="transparent"></path><ellipse rx="164.56874808852186" ry="164.56874808852186" cx="171.42577925887693" cy="171.42577925887693" fill="#ed1703" stroke="transparent" stroke-width="0" fill-opacity="1" data-fill-palette-color="tertiary"></ellipse></g><g transform="matrix(1,0,0,1,64.84655864529837,133.36077572240504)"><svg viewBox="0 0 213.1584412271571 76.1300070729438" height="76.1300070729438" width="213.1584412271571"><g><svg viewBox="0 0 213.1584412271571 76.1300070729438" height="76.1300070729438" width="213.1584412271571"><g><svg viewBox="0 0 213.1584412271571 76.1300070729438" height="76.1300070729438" width="213.1584412271571"><g transform="matrix(1,0,0,1,0,47.05139855548908)"><svg viewBox="0 0 213.1584412271571 29.07860851745472" height="29.07860851745472" width="213.1584412271571"><g id="textblocktransform"><svg viewBox="0 0 213.1584412271571 29.07860851745472" height="29.07860851745472" width="213.1584412271571" id="textblock"><g><svg viewBox="0 0 213.1584412271571 29.07860851745472" height="29.07860851745472" width="213.1584412271571"><g transform="matrix(1,0,0,1,0,0)"><svg width="213.1584412271571" viewBox="0.320000022649765 -40.40999984741211 300.10296630859375 40.95000076293945" height="29.07860851745472" data-palette-color="#ffffff"><path d="M17.04 0L0.32-38.16 8.89-38.16 20.87-9.06 32.86-38.16 41.43-38.16 24.71 0 17.04 0ZM50.07-32.74L50.07-32.74Q49-32.74 48.13-33.04 47.26-33.35 46.65-33.87 46.04-34.4 45.71-35.1 45.38-35.79 45.38-36.57L45.38-36.57Q45.38-37.38 45.71-38.07 46.04-38.77 46.65-39.28 47.26-39.79 48.13-40.1 49-40.41 50.07-40.41L50.07-40.41Q51.17-40.41 52.04-40.1 52.9-39.79 53.51-39.28 54.12-38.77 54.45-38.07 54.78-37.38 54.78-36.57L54.78-36.57Q54.78-35.79 54.45-35.1 54.12-34.4 53.51-33.87 52.9-33.35 52.04-33.04 51.17-32.74 50.07-32.74ZM46.46 0L46.46-28.81 53.68-28.81 53.68 0 46.46 0ZM61.2-14.33L61.2-14.33Q61.2-17.5 62.36-20.25 63.52-23 65.75-25.01 67.99-27.03 71.22-28.17 74.46-29.32 78.61-29.32L78.61-29.32Q80.41-29.32 82.25-29.1 84.08-28.88 85.77-28.48 87.47-28.08 88.96-27.53 90.45-26.98 91.55-26.32L91.55-26.32 88.2-20.87Q85.83-21.97 83.72-22.49 81.61-23 79.44-23L79.44-23Q76.95-23 74.97-22.35 72.99-21.7 71.61-20.54 70.23-19.38 69.51-17.81 68.79-16.24 68.79-14.38L68.79-14.38Q68.79-12.52 69.56-10.95 70.33-9.38 71.74-8.24 73.14-7.1 75.13-6.46 77.12-5.81 79.56-5.81L79.56-5.81Q82.25-5.81 84.63-6.57 87.01-7.32 89.06-8.59L89.06-8.59 92.4-3.15Q91.11-2.37 89.59-1.7 88.08-1.03 86.36-0.54 84.64-0.05 82.75 0.23 80.85 0.51 78.83 0.51L78.83 0.51Q74.7 0.51 71.43-0.61 68.16-1.73 65.89-3.72 63.62-5.71 62.41-8.42 61.2-11.13 61.2-14.33ZM104.53 0L104.53-23.39 97.58-23.39 97.58-28.81 104.53-28.81 104.53-37.77 111.76-37.77 111.76-28.81 118.72-28.81 118.72-23.39 111.76-23.39 111.76 0 104.53 0ZM123.4-14.4L123.4-14.4Q123.4-17.5 124.66-20.21 125.92-22.92 128.25-24.95 130.58-26.98 133.89-28.15 137.2-29.32 141.32-29.32L141.32-29.32Q145.45-29.32 148.76-28.15 152.07-26.98 154.4-24.95 156.73-22.92 157.99-20.21 159.24-17.5 159.24-14.4L159.24-14.4Q159.24-11.3 157.99-8.59 156.73-5.88 154.4-3.86 152.07-1.83 148.76-0.66 145.45 0.51 141.32 0.51L141.32 0.51Q137.2 0.51 133.89-0.66 130.58-1.83 128.25-3.86 125.92-5.88 124.66-8.59 123.4-11.3 123.4-14.4ZM131-14.4L131-14.4Q131-12.67 131.69-11.12 132.39-9.57 133.72-8.39 135.05-7.2 136.97-6.51 138.88-5.81 141.32-5.81L141.32-5.81Q143.76-5.81 145.68-6.51 147.6-7.2 148.93-8.39 150.26-9.57 150.95-11.12 151.65-12.67 151.65-14.4L151.65-14.4Q151.65-16.14 150.95-17.7 150.26-19.26 148.93-20.45 147.6-21.63 145.68-22.33 143.76-23.02 141.32-23.02L141.32-23.02Q138.88-23.02 136.97-22.33 135.05-21.63 133.72-20.45 132.39-19.26 131.69-17.7 131-16.14 131-14.4ZM166.54 0L166.54-28.81 173.77-28.81 173.77-24.66Q176.16-26.44 178.82-27.73 181.48-29.03 184.12-29.71L184.12-29.71 186.24-23.1Q182.07-22.68 178.91-21.23 175.74-19.78 173.77-17.14L173.77-17.14 173.77 0 166.54 0ZM206.87-19.19L206.87-19.19Q206.87-23.51 208.45-27.1 210.04-30.69 212.91-33.26 215.78-35.84 219.79-37.26 223.81-38.67 228.69-38.67L228.69-38.67Q233.55-38.67 237.58-37.26 241.61-35.84 244.48-33.26 247.35-30.69 248.93-27.1 250.52-23.51 250.52-19.19L250.52-19.19Q250.52-14.84 248.93-11.22 247.35-7.59 244.48-4.98 241.61-2.37 237.58-0.92 233.55 0.54 228.69 0.54L228.69 0.54Q223.81 0.54 219.79-0.92 215.78-2.37 212.91-4.98 210.04-7.59 208.45-11.22 206.87-14.84 206.87-19.19ZM214.61-19.19L214.61-19.19Q214.61-16.24 215.67-13.87 216.73-11.5 218.62-9.83 220.51-8.15 223.09-7.25 225.67-6.35 228.69-6.35L228.69-6.35Q231.72-6.35 234.3-7.25 236.87-8.15 238.75-9.83 240.63-11.5 241.71-13.87 242.78-16.24 242.78-19.19L242.78-19.19Q242.78-22.14 241.71-24.49 240.63-26.83 238.75-28.45 236.87-30.08 234.3-30.93 231.72-31.79 228.69-31.79L228.69-31.79Q225.67-31.79 223.09-30.93 220.51-30.08 218.62-28.45 216.73-26.83 215.67-24.49 214.61-22.14 214.61-19.19ZM256.5-19.43L256.5-19.43Q256.5-23.46 258.01-26.97 259.53-30.47 262.43-33.06 265.34-35.64 269.57-37.13 273.81-38.62 279.28-38.62L279.28-38.62Q281.25-38.62 283.24-38.42 285.23-38.21 287.17-37.77 289.12-37.33 290.96-36.66 292.8-35.99 294.46-35.06L294.46-35.06 290.9-29.2Q289.9-29.79 288.63-30.26 287.36-30.74 285.91-31.07 284.45-31.4 282.9-31.57 281.35-31.74 279.79-31.74L279.79-31.74Q276.18-31.74 273.34-30.82 270.51-29.91 268.56-28.26 266.61-26.61 265.58-24.32 264.56-22.02 264.56-19.29L264.56-19.29Q264.56-16.46 265.63-14.09 266.7-11.72 268.68-10.01 270.66-8.3 273.47-7.34 276.27-6.37 279.74-6.37L279.74-6.37Q282.5-6.37 284.79-6.99 287.09-7.62 288.8-8.76 290.51-9.91 291.58-11.54 292.66-13.16 293-15.19L293-15.19 279.67-15.19 279.67-21.56 299.96-21.56 299.96-21.53 299.98-21.56Q300.59-18.63 300.36-15.86 300.13-13.09 299.09-10.63 298.05-8.18 296.24-6.13 294.44-4.08 291.92-2.6 289.41-1.12 286.21-0.31 283.01 0.51 279.2 0.51L279.2 0.51Q273.88 0.51 269.67-1.05 265.46-2.61 262.53-5.32 259.6-8.03 258.05-11.67 256.5-15.31 256.5-19.43Z" opacity="1" transform="matrix(1,0,0,1,0,0)" fill="#ffffff" class="wordmark-text-0" data-fill-palette-color="quaternary" id="text-0"></path></svg></g></svg></g></svg></g></svg></g><g transform="matrix(1,0,0,1,86.48590212801733,0)"><svg viewBox="0 0 40.18663697112244 40.18663697112244" height="40.18663697112244" width="40.18663697112244"><g><svg xmlns="http://www.w3.org/2000/svg" viewBox="2 2 20 20" x="0" y="0" height="40.18663697112244" width="40.18663697112244" class="icon-icon-0" data-fill-palette-color="quaternary" id="icon-0"><polygon points="2 2 4 2 12 10 20 2 22 2 22 4 14 12 22 20 22 22 20 22 12 14 4 22 2 22 2 20 10 12 2 4 2 2" fill="#ffffff" data-fill-palette-color="quaternary"></polygon></svg></g></svg></g><g></g></svg></g></svg></g></svg></g></svg></g><defs></defs></svg><rect width="342.85155851775386" height="342.85155851775386" fill="none" stroke="none" visibility="hidden"></rect></g></svg></g></svg>